<?xml version="1.0" standalone="no"?>
<!DOCTYPE svg PUBLIC "-//W3C//DTD SVG 20010904//EN"
 "http://www.w3.org/TR/2001/REC-SVG-20010904/DTD/svg10.dtd">
<svg version="1.0" xmlns="http://www.w3.org/2000/svg"
 width="900.000000pt" height="900.000000pt" viewBox="0 0 900.000000 900.000000"
 preserveAspectRatio="xMidYMid meet">
<metadata>
Created by potrace 1.11, written by Peter Selinger 2001-2013
</metadata>
<g transform="translate(0.000000,900.000000) scale(0.100000,-0.100000)"
fill="#000000" stroke="none">
<path d="M1008 6762 c-14 -3 -15 -217 -16 -2132 l0 -2130 394 0 394 0 -3 1148
c-1 631 -6 1158 -9 1172 -8 29 -24 131 -33 205 -3 28 -8 59 -10 70 -2 11 -7
43 -10 70 -4 28 -8 57 -10 65 -3 8 -7 40 -10 70 -4 30 -9 58 -12 63 -3 5 3 7
13 5 13 -2 68 -102 189 -341 l170 -339 240 -336 c132 -185 248 -347 257 -361
15 -23 414 -584 452 -636 8 -11 90 -126 182 -255 91 -129 230 -324 307 -432
l140 -198 304 0 303 0 0 2130 c0 1697 -3 2130 -12 2131 -21 1 -699 1 -740 0
l-37 -1 3 -1142 c1 -629 5 -1152 8 -1163 3 -11 9 -45 13 -75 5 -30 9 -62 11
-70 1 -8 9 -64 18 -125 9 -60 18 -119 20 -130 2 -11 7 -45 11 -75 4 -30 9 -63
11 -72 1 -10 -3 -18 -10 -18 -8 0 -85 145 -176 328 -119 241 -181 353 -234
427 -40 55 -127 177 -193 270 -410 579 -485 684 -511 720 -34 47 -582 818
-721 1015 -52 74 -96 137 -98 139 -3 5 -572 8 -595 3z"/>
<path d="M5004 6732 l-41 -3 0 -2114 0 -2115 414 0 413 0 1 43 c0 23 1 429 2
902 l2 860 106 2 106 3 43 -63 c24 -34 62 -89 84 -122 79 -113 261 -376 342
-493 44 -64 122 -177 173 -251 51 -74 118 -170 149 -215 263 -381 446 -643
456 -654 9 -9 122 -12 520 -10 l507 3 -46 65 c-94 132 -962 1358 -1023 1445
-333 473 -337 478 -424 538 -98 66 -237 162 -243 169 -3 3 67 56 155 117 141
99 167 122 211 185 53 74 172 246 324 466 50 72 126 182 170 245 44 63 100
144 125 180 25 36 77 110 115 165 39 55 89 128 113 162 23 35 108 157 187 271
80 114 145 211 145 215 0 7 -938 8 -943 1 -2 -2 -36 -56 -77 -119 -41 -63
-126 -194 -189 -290 -105 -161 -181 -278 -414 -635 -47 -71 -141 -215 -209
-320 -68 -104 -157 -241 -198 -304 l-74 -114 -76 -35 c-41 -19 -85 -38 -96
-42 l-22 -9 1 930 c0 511 -3 932 -6 936 -7 6 -706 11 -783 5z"/>
</g>
</svg>
